<svg width="450" height="46" viewBox="0 0 450 46" fill="none" xmlns="http://www.w3.org/2000/svg">
<path d="M0.792614 1.36364H12.1705L24.1875 30.6818H24.6989L36.7159 1.36364H48.0938V45H39.1449V16.598H38.7827L27.4901 44.7869H21.3963L10.1037 16.4915H9.74148V45H0.792614V1.36364ZM63.2163 45H53.3299L68.3938 1.36364H80.283L95.3256 45H85.4393L74.5089 11.3352H74.168L63.2163 45ZM62.5984 27.848H85.9506V35.0497H62.5984V27.848ZM100.578 45V1.36364H109.804V20.6037H110.379L126.082 1.36364H137.14L120.947 20.902L137.332 45H126.295L114.342 27.0597L109.804 32.5994V45H100.578ZM141.945 45V1.36364H171.348V8.97017H151.171V19.3679H169.836V26.9744H151.171V37.3935H171.434V45H141.945ZM231.071 16.6406H221.739C221.569 15.4332 221.221 14.3608 220.695 13.4233C220.169 12.4716 219.495 11.6619 218.671 10.9943C217.847 10.3267 216.895 9.81534 215.816 9.46023C214.75 9.10511 213.593 8.92756 212.343 8.92756C210.084 8.92756 208.117 9.48864 206.441 10.6108C204.765 11.7187 203.465 13.3381 202.542 15.4688C201.618 17.5852 201.157 20.1562 201.157 23.1818C201.157 26.2926 201.618 28.9062 202.542 31.0227C203.479 33.1392 204.786 34.7372 206.462 35.8168C208.138 36.8963 210.077 37.4361 212.279 37.4361C213.515 37.4361 214.658 37.2727 215.709 36.946C216.775 36.6193 217.719 36.1435 218.543 35.5185C219.367 34.8793 220.049 34.1051 220.588 33.196C221.142 32.2869 221.526 31.25 221.739 30.0852L231.071 30.1278C230.83 32.1307 230.226 34.0625 229.26 35.9233C228.309 37.7699 227.023 39.4247 225.404 40.8878C223.799 42.3366 221.881 43.4872 219.651 44.3395C217.435 45.1776 214.928 45.5966 212.13 45.5966C208.238 45.5966 204.757 44.7159 201.689 42.9545C198.635 41.1932 196.221 38.6435 194.445 35.3054C192.684 31.9673 191.803 27.9261 191.803 23.1818C191.803 18.4233 192.698 14.375 194.488 11.0369C196.277 7.69886 198.706 5.15625 201.775 3.40909C204.843 1.64773 208.294 0.767044 212.13 0.767044C214.658 0.767044 217.002 1.12216 219.161 1.83239C221.334 2.54261 223.259 3.57954 224.935 4.94318C226.611 6.29261 227.975 7.94744 229.026 9.90767C230.091 11.8679 230.773 14.1122 231.071 16.6406ZM237.687 45V1.36364H246.913V19.3679H265.642V1.36364H274.846V45H265.642V26.9744H246.913V45H237.687ZM289.974 45H280.088L295.152 1.36364H307.041L322.083 45H312.197L301.267 11.3352H300.926L289.974 45ZM289.356 27.848H312.708V35.0497H289.356V27.848ZM363.834 1.36364V45H355.865L336.881 17.5355H336.561V45H327.336V1.36364H335.432L354.267 28.8068H354.651V1.36364H363.834ZM400.391 15.4688C400.093 14.4318 399.674 13.5156 399.134 12.7202C398.594 11.9105 397.934 11.2287 397.153 10.6747C396.386 10.1065 395.505 9.6733 394.511 9.375C393.531 9.0767 392.444 8.92756 391.251 8.92756C389.021 8.92756 387.06 9.48153 385.37 10.5895C383.694 11.6974 382.387 13.3097 381.45 15.4261C380.512 17.5284 380.043 20.0994 380.043 23.1392C380.043 26.179 380.505 28.7642 381.428 30.8949C382.352 33.0256 383.658 34.652 385.349 35.7741C387.039 36.8821 389.035 37.4361 391.336 37.4361C393.424 37.4361 395.207 37.0668 396.684 36.3281C398.175 35.5753 399.312 34.517 400.093 33.1534C400.888 31.7898 401.286 30.1776 401.286 28.3168L403.161 28.5938H391.911V21.6477H410.171V27.1449C410.171 30.9801 409.362 34.2756 407.742 37.0312C406.123 39.7727 403.893 41.8892 401.052 43.3807C398.211 44.858 394.958 45.5966 391.293 45.5966C387.202 45.5966 383.609 44.6946 380.512 42.8906C377.415 41.0724 375.001 38.4943 373.268 35.1562C371.549 31.804 370.69 27.8267 370.69 23.2244C370.69 19.6875 371.201 16.5341 372.224 13.7642C373.261 10.9801 374.71 8.62216 376.57 6.69034C378.431 4.75852 380.597 3.28835 383.069 2.27983C385.54 1.27131 388.218 0.767044 391.102 0.767044C393.573 0.767044 395.874 1.12926 398.005 1.85369C400.136 2.56392 402.025 3.57244 403.673 4.87926C405.335 6.18608 406.691 7.74148 407.742 9.54545C408.793 11.3352 409.468 13.3097 409.766 15.4688H400.391Z" fill="black"/>
<path d="M432.975 45.5966C429.793 45.5966 426.959 45.0497 424.473 43.956C422.002 42.848 420.049 41.3281 418.614 39.3963C417.194 37.4503 416.462 35.206 416.419 32.6634H425.709C425.766 33.7287 426.114 34.6662 426.753 35.4759C427.407 36.2713 428.273 36.8892 429.353 37.3295C430.432 37.7699 431.647 37.9901 432.996 37.9901C434.402 37.9901 435.645 37.7415 436.725 37.2443C437.804 36.7472 438.65 36.0582 439.26 35.1776C439.871 34.2969 440.176 33.2812 440.176 32.1307C440.176 30.9659 439.85 29.9361 439.196 29.0412C438.557 28.1321 437.634 27.4219 436.426 26.9105C435.233 26.3991 433.813 26.1435 432.165 26.1435H428.096V19.3679H432.165C433.557 19.3679 434.786 19.1264 435.851 18.6435C436.931 18.1605 437.769 17.4929 438.365 16.6406C438.962 15.7741 439.26 14.7656 439.26 13.6151C439.26 12.5213 438.998 11.5625 438.472 10.7386C437.961 9.90057 437.236 9.24716 436.299 8.77841C435.375 8.30966 434.296 8.07528 433.06 8.07528C431.81 8.07528 430.667 8.30256 429.63 8.7571C428.593 9.19744 427.762 9.82954 427.137 10.6534C426.512 11.4773 426.178 12.4432 426.135 13.5511H417.293C417.336 11.0369 418.053 8.82102 419.445 6.90341C420.837 4.98579 422.712 3.48721 425.07 2.40767C427.442 1.31392 430.12 0.767044 433.103 0.767044C436.114 0.767044 438.749 1.31392 441.007 2.40767C443.266 3.50142 445.02 4.97869 446.27 6.83949C447.534 8.68608 448.159 10.7599 448.145 13.0611C448.159 15.5043 447.4 17.5426 445.865 19.1761C444.346 20.8097 442.364 21.8466 439.921 22.2869V22.6278C443.131 23.0398 445.574 24.1548 447.25 25.973C448.941 27.777 449.779 30.0355 449.765 32.7486C449.779 35.2344 449.061 37.4432 447.613 39.375C446.178 41.3068 444.196 42.8267 441.668 43.9347C439.14 45.0426 436.242 45.5966 432.975 45.5966Z" fill="#48BB78"/>
</svg>
