<svg width="25" height="25" viewBox="0 0 25 25" fill="none" xmlns="http://www.w3.org/2000/svg">
<path fill-rule="evenodd" clip-rule="evenodd" d="M15.1308 2.4485C16.2233 2.03151 17.4175 1.96012 18.5519 2.24396C19.454 2.46968 20.2837 2.91138 20.9716 3.52654C21.8176 3.21558 22.62 2.79473 23.358 2.27417L23.9584 3.12538L24.9705 3.37186C24.6137 4.83699 23.8985 6.18743 22.8927 7.30348C22.9082 7.4716 22.9162 7.64042 22.9168 7.80944L22.9168 7.81288C22.9168 14.167 19.8575 18.8285 15.4635 21.1673C11.0948 23.4926 5.51143 23.4668 0.535896 20.7026C0.114218 20.4684 -0.0914548 19.9752 0.0388041 19.5108C0.169063 19.0463 0.601174 18.732 1.08317 18.7512C2.84027 18.8211 4.57966 18.4717 6.16129 17.7431C4.59551 16.7769 3.46825 15.6298 2.68454 14.3924C1.63909 12.7417 1.24443 10.993 1.17306 9.42268C1.10189 7.85693 1.35061 6.44715 1.61206 5.43618C1.74342 4.92828 1.87971 4.51445 1.98477 4.22385C2.03736 4.07839 2.08231 3.96331 2.11515 3.88224C2.13158 3.84169 2.145 3.8096 2.15485 3.78642L2.16691 3.75837L2.16998 3.75133C2.17732 3.73448 2.18513 3.71776 2.19341 3.7012L3.12511 4.16705L3.97756 3.56839C4.93125 4.92639 6.20598 6.02746 7.68823 6.77352C8.86725 7.36696 10.1484 7.72113 11.4581 7.81956C11.4505 6.66367 11.7939 5.53232 12.4435 4.57544C13.1002 3.60794 14.0383 2.86549 15.1308 2.4485ZM3.54661 6.29581C3.35527 7.13057 3.20247 8.18917 3.25424 9.32808C3.31307 10.6224 3.63456 11.9987 4.44458 13.2777C5.25041 14.55 6.57932 15.7892 8.7565 16.7568C9.10213 16.9104 9.33734 17.2393 9.37098 17.6161C9.40462 17.9928 9.23141 18.3582 8.91847 18.5706C7.76125 19.3561 6.49407 19.9471 5.16688 20.3292C8.46913 21.1705 11.7782 20.7688 14.4846 19.3283C18.1631 17.3703 20.8329 13.4388 20.8334 7.81462C20.8326 7.58952 20.8109 7.36498 20.7686 7.14387C20.7033 6.80235 20.8128 6.45078 21.0603 6.20663C21.2924 5.97779 21.5073 5.73389 21.7039 5.47695C21.468 5.56398 21.2292 5.64391 20.988 5.71656C20.5956 5.8347 20.1705 5.71187 19.9016 5.40271C19.4143 4.84239 18.7666 4.44524 18.0463 4.26499C17.3259 4.08474 16.5675 4.13008 15.8737 4.39488C15.1799 4.65968 14.5842 5.13116 14.1671 5.74557C13.7501 6.35997 13.5317 7.08764 13.5417 7.83017L13.5419 7.84413H13.5418V8.8858C13.5418 9.45058 13.0917 9.91248 12.5271 9.92712C10.5248 9.97904 8.54072 9.53496 6.75158 8.63442C5.55828 8.0338 4.4764 7.24255 3.54661 6.29581Z" fill="black"/>
</svg>
