<svg width="25" height="25" viewBox="0 0 25 25" fill="none" xmlns="http://www.w3.org/2000/svg">
<path fill-rule="evenodd" clip-rule="evenodd" d="M1.26953 12.5C1.26953 6.29784 6.29784 1.26953 12.5 1.26953C18.7022 1.26953 23.7305 6.29784 23.7305 12.5C23.7305 18.7022 18.7022 23.7305 12.5 23.7305C6.29784 23.7305 1.26953 18.7022 1.26953 12.5ZM12.5 3.41797C7.48439 3.41797 3.41797 7.48439 3.41797 12.5C3.41797 17.5156 7.48439 21.582 12.5 21.582C17.5156 21.582 21.582 17.5156 21.582 12.5C21.582 7.48439 17.5156 3.41797 12.5 3.41797Z" fill="black"/>
<path fill-rule="evenodd" clip-rule="evenodd" d="M7.74837 4.79691C8.83455 2.8415 10.4916 1.26953 12.5015 1.26953C14.5113 1.26953 16.1684 2.8415 17.2546 4.79691C18.3752 6.8144 19.0771 9.53731 19.0771 12.5C19.0771 15.4627 18.3752 18.1856 17.2546 20.2031C16.1684 22.1585 14.5113 23.7305 12.5015 23.7305C10.4916 23.7305 8.83455 22.1585 7.74837 20.2031C6.62771 18.1856 5.92578 15.4627 5.92578 12.5C5.92578 9.53731 6.62771 6.8144 7.74837 4.79691ZM9.62651 5.84017C8.7053 7.49858 8.07422 9.8538 8.07422 12.5C8.07422 15.1462 8.7053 17.5014 9.62651 19.1598C10.5822 20.8803 11.6758 21.582 12.5015 21.582C13.3271 21.582 14.4207 20.8803 15.3764 19.1598C16.2976 17.5014 16.9287 15.1462 16.9287 12.5C16.9287 9.8538 16.2976 7.49858 15.3764 5.84017C14.4207 4.11968 13.3271 3.41797 12.5015 3.41797C11.6758 3.41797 10.5822 4.11968 9.62651 5.84017Z" fill="black"/>
<path fill-rule="evenodd" clip-rule="evenodd" d="M4.85465 5.30203C5.19811 4.81828 5.86869 4.70455 6.35244 5.04801C8.03767 6.2445 10.1709 6.96591 12.5016 6.96591C14.8322 6.96591 16.9654 6.2445 18.6507 5.04801C19.1344 4.70455 19.805 4.81828 20.1485 5.30203C20.4919 5.78578 20.3782 6.45636 19.8944 6.79982C17.8453 8.25469 15.2773 9.11434 12.5016 9.11434C9.72579 9.11434 7.15782 8.25469 5.10867 6.79982C4.62492 6.45636 4.51119 5.78578 4.85465 5.30203ZM5.10867 18.1994C7.15782 16.7445 9.72579 15.8849 12.5016 15.8849C15.2773 15.8849 17.8453 16.7445 19.8944 18.1994C20.3782 18.5428 20.4919 19.2134 20.1485 19.6972C19.805 20.1809 19.1344 20.2946 18.6507 19.9512C16.9654 18.7547 14.8322 18.0333 12.5016 18.0333C10.1709 18.0333 8.03767 18.7547 6.35244 19.9512C5.86869 20.2946 5.19811 20.1809 4.85465 19.6972C4.51119 19.2134 4.62492 18.5428 5.10867 18.1994Z" fill="black"/>
<path fill-rule="evenodd" clip-rule="evenodd" d="M11.4258 11.4258V2.34375H13.5742V11.4258H22.6562V13.5742H13.5742V22.6562H11.4258V13.5742H2.34375V11.4258H11.4258Z" fill="black"/>
</svg>
